<svg width="94" height="43" viewBox="0 0 94 43" fill="none" xmlns="http://www.w3.org/2000/svg">
<path d="M55.4 31.4501H53.4V22.1501L47.66 31.4501H45.98V18.6401H47.92V27.9301L53.64 18.6401H55.43L55.4 31.4501Z" fill="black"/>
<path d="M65.84 31.45H63.98V27.57H60.34V31.45H58.51V22.3H60.34V25.93H63.98V22.3H65.82L65.84 31.45Z" fill="black"/>
<path d="M74.9799 23.93H72.19V31.45H70.3499V23.93H67.45V22.3H74.9799V23.93Z" fill="black"/>
<path d="M83.7499 27.4402H77.8399C77.8399 29.1402 78.6799 30.0002 80.2399 30.0002C80.6457 29.987 81.0446 29.8915 81.4125 29.7196C81.7803 29.5477 82.1095 29.303 82.3799 29.0002L83.5299 30.1002C83.087 30.5566 82.5653 30.9292 81.9899 31.2002C81.4071 31.427 80.7851 31.5358 80.1599 31.5202C79.5891 31.5606 79.0164 31.475 78.4824 31.2694C77.9484 31.0637 77.4661 30.7431 77.0699 30.3302C76.2992 29.3393 75.9122 28.1036 75.9799 26.8502C75.9021 25.6375 76.2564 24.4364 76.9799 23.4602C77.3243 23.0495 77.7589 22.7239 78.2498 22.5089C78.7407 22.2938 79.2746 22.195 79.8099 22.2202C80.3372 22.1978 80.8629 22.293 81.3489 22.4988C81.8349 22.7046 82.269 23.0159 82.6199 23.4102C83.3566 24.3086 83.7311 25.4499 83.6699 26.6102L83.7499 27.4402ZM81.9499 26.1402C81.8299 24.5502 81.1399 23.7502 79.8899 23.7502C79.6002 23.7301 79.3101 23.7817 79.045 23.9002C78.7799 24.0188 78.5481 24.2008 78.3699 24.4302C78.0233 24.9329 77.8384 25.5295 77.8399 26.1402H81.9499Z" fill="black"/>
<path d="M93.21 31.45H90.98L89.09 28.3L87.17 31.41H84.98L88.11 26.75L85.11 22.29H87.32L89.12 25.29L90.92 22.29H93.12L90.12 26.75L93.21 31.45Z" fill="black"/>
<path d="M12.9321 24.0289L17.0988 19.9426V17.1709L12.9321 21.2333V24.0289Z" fill="#FFCA08"/>
<path d="M12.9321 13.6827L17.0988 9.59476V6.97729L12.9321 11.0433V13.6827Z" fill="#FFCA08"/>
<path d="M12.9321 17.1047L17.0988 13.0178V10.4019L12.9321 14.4672V17.1047Z" fill="#FFCA08"/>
<path d="M11.7376 7.01065L11.1843 6.47077V0.000732422H10.5543V5.85769L10.0055 5.31951V0.000732422H9.37625V4.70707L8.82297 4.1691V0.000732422H8.19568V6.17179L12.3649 10.2587V0.000732422H11.7376V7.01065Z" fill="#FFCA08"/>
<path d="M12.9321 20.5284L17.0988 16.4418V13.825L12.9321 17.8901V20.5284Z" fill="#FFCA08"/>
<path d="M8.19568 19.9417L12.366 24.0288V21.2343L8.19568 17.1719V19.9417Z" fill="#FFCA08"/>
<path d="M16.4727 4.16922L15.9203 4.70719V0H15.2902V5.32133L14.7378 5.85781V0H14.1122V6.46898L13.5579 7.00971V0H12.9316V10.2588L17.0983 6.17191V0H16.4727V4.16922Z" fill="#FFCA08"/>
<path d="M8.19568 9.59489L12.366 13.682V11.0424L8.19568 6.97827V9.59489Z" fill="#FFCA08"/>
<path d="M8.19568 13.0189L12.366 17.1047V14.4672L8.19568 10.4019V13.0189Z" fill="#FFCA08"/>
<path d="M8.19568 16.4417L12.366 20.5283V17.89L8.19568 13.8257V16.4417Z" fill="#FFCA08"/>
<path d="M22.1713 21.1408C22.171 21.3158 22.1298 21.4884 22.0509 21.6447C21.972 21.801 21.8575 21.9368 21.7167 22.0412C21.5759 22.1456 21.4125 22.2157 21.2397 22.246C21.0669 22.2763 20.8894 22.2659 20.7214 22.2156C20.5533 22.1653 20.3994 22.0766 20.2718 21.9564C20.1442 21.8363 20.0465 21.6881 19.9865 21.5236C19.9265 21.3591 19.9058 21.1829 19.9261 21.0091C19.9464 20.8352 20.0071 20.6685 20.1034 20.5222L20.4176 19.9925C20.3178 19.9053 20.2378 19.7977 20.1829 19.6771C20.1281 19.5565 20.0998 19.4256 20.0998 19.2932C20.0998 19.1608 20.1281 19.0299 20.1829 18.9093C20.2378 18.7887 20.3178 18.6812 20.4176 18.594L20.1034 18.0641C19.9817 17.8813 19.9174 17.6664 19.9187 17.447C19.9187 17.1489 20.0374 16.8631 20.2486 16.6524C20.4598 16.4416 20.7463 16.3232 21.045 16.3232C21.3437 16.3232 21.6302 16.4416 21.8414 16.6524C22.0526 16.8631 22.1713 17.1489 22.1713 17.447C22.1713 17.9045 21.6426 18.9968 21.6426 18.9968V19.5905C21.6426 19.5905 22.1713 20.6818 22.1713 21.1408ZM33.0308 18.5989H22.8937C23.1145 18.255 23.2317 17.8551 23.2314 17.4467C23.2323 17.1031 23.1517 16.764 22.9963 16.4573C22.8408 16.1506 22.615 15.8849 22.337 15.6819C22.0591 15.4789 21.737 15.3442 21.397 15.289C21.057 15.2338 20.7087 15.2596 20.3806 15.3643C20.0525 15.4689 19.7538 15.6494 19.5089 15.8912C19.2641 16.1329 19.0799 16.4289 18.9716 16.7552C18.8632 17.0814 18.8337 17.4286 18.8853 17.7683C18.937 18.1081 19.0685 18.4309 19.269 18.7104C19.172 18.7736 19.0924 18.86 19.0372 18.9617C18.9821 19.0634 18.9532 19.1772 18.9532 19.2928C18.9532 19.4084 18.9821 19.5222 19.0372 19.6239C19.0924 19.7256 19.172 19.812 19.269 19.8752C19.0695 20.1545 18.9389 20.4769 18.8878 20.8161C18.8367 21.1552 18.8666 21.5017 18.9751 21.8271C19.0835 22.1526 19.2674 22.4479 19.5118 22.6891C19.7563 22.9303 20.0543 23.1105 20.3817 23.215C20.7091 23.3196 21.0567 23.3455 21.396 23.2908C21.7354 23.2361 22.057 23.1022 22.3347 22.9C22.6124 22.6978 22.8384 22.4331 22.9942 22.1274C23.15 21.8217 23.2313 21.4835 23.2314 21.1406C23.2318 20.7325 23.1146 20.3329 22.8937 19.9895H30.4353V20.4451H29.6903V21.0874H30.4353V21.7524H29.6903V22.9766H30.4353V22.4221H31.5387V22.9766H32.2813V21.7526H31.5387V21.0876H32.2813V20.4453H31.5387V19.9897H33.0317C33.1719 19.9874 33.3054 19.9301 33.4036 19.8302C33.5017 19.7303 33.5564 19.5959 33.556 19.456V19.1309C33.5565 18.9911 33.5017 18.8569 33.4035 18.7573C33.3053 18.6576 33.1717 18.6007 33.0317 18.5989" fill="#FFCA08"/>
<path d="M4.40491 17.2739V19.9906C4.40491 22.5867 5.53962 24.2534 6.1908 24.904C6.57302 25.2791 10.4496 29.0834 10.5029 29.1374C11.7102 30.3134 11.9211 30.7009 12.1898 31.3695V28.3605C12.1898 25.6792 10.8267 24.6397 10.1269 23.9583C8.49456 22.3678 7.3991 21.3219 6.51906 20.447C4.84599 18.7778 4.40491 17.275 4.40491 17.275" fill="#14502E"/>
<path d="M10.1274 30.6808C8.49398 29.0887 7.39958 28.0421 6.51847 27.1668C4.84755 25.4983 4.40411 24.3657 4.40411 24.3657V26.7119C4.37572 28.5179 5.01021 30.272 6.18808 31.6438C6.57201 32.0151 10.4565 35.8081 10.5045 35.8573C11.7106 37.0311 11.9203 37.5925 12.1895 38.2619V35.0827C12.1895 32.3997 10.8278 31.3616 10.1278 30.6821" fill="#14502E"/>
<path d="M18.7228 5.02979C18.4201 5.02979 18.1223 5.03617 17.8269 5.04979V6.32149C18.1217 6.30788 18.4195 6.29894 18.7228 6.29894C22.8236 6.29865 26.7936 7.73917 29.9361 10.3678C33.0786 12.9963 35.193 16.6451 35.9082 20.6738C36.6235 24.7025 35.8939 28.8539 33.8475 32.3994C31.8011 35.945 28.5686 38.6584 24.7171 40.0634C20.8657 41.4685 16.6413 41.4755 12.7852 40.0832C8.92915 38.6909 5.68764 35.9882 3.62946 32.4495C1.57127 28.9107 0.827876 24.7618 1.52971 20.7307C2.23155 16.6997 4.33378 13.0439 7.46755 10.405V8.77894C3.91484 11.4438 1.4282 15.2828 0.452409 19.6092C-0.523387 23.9355 0.0753037 28.4672 2.1414 32.3935C4.2075 36.3199 7.60623 39.3849 11.7297 41.0403C15.8532 42.6957 20.4325 42.8335 24.6485 41.4291C28.8645 40.0248 32.4422 37.1698 34.7418 33.3749C37.0414 29.5799 37.9128 25.0925 37.2002 20.7153C36.4876 16.3381 34.2375 12.3566 30.8523 9.48284C27.467 6.60913 23.1675 5.03067 18.7228 5.02979Z" fill="#14502E"/>
<path d="M31.9655 33.4598C32.2575 33.0651 32.5323 32.6581 32.7898 32.2387V29.7319H31.9655V33.4598Z" fill="#14502E"/>
<path d="M34.3667 28.8206C34.4846 28.4603 34.5904 28.0941 34.6826 27.7266H31.9655V28.3931H32.3777C33.1029 28.3733 33.9105 28.3641 34.3663 28.8206" fill="#14502E"/>
<path d="M16.2806 27.6357H15.5443V35.0849H16.2806V27.6357Z" fill="#14502E"/>
<path d="M29.1978 31.4636L28.4003 30.7046L29.1978 26.5909V31.4636ZM13.8463 26.1989H16.2804C16.9085 26.1989 17.3469 26.3293 17.6041 26.5743C17.86 26.8152 17.978 27.2518 17.978 27.8802V34.8389C17.978 35.4711 17.8609 35.9076 17.6041 36.1504C17.2174 36.5334 16.5093 36.5334 15.9167 36.5334C15.7888 36.5209 15.6586 36.5209 15.5441 36.5209V39.8193C15.7879 39.868 16.0321 39.9119 16.2804 39.9495V37.2404C17.3997 37.2404 18.136 36.8597 18.4801 36.0933V40.1257C18.5601 40.1277 18.64 40.1294 18.7226 40.1294C18.8768 40.1294 19.0312 40.1277 19.1854 40.1223V28.0109C19.1854 27.3676 19.3166 26.9184 19.5583 26.663C19.7999 26.4077 20.2408 26.2772 20.8593 26.2772C21.4898 26.2772 22.4132 26.1846 22.8916 26.663C23.1373 26.9184 23.2508 27.3676 23.2508 28.0109V31.5775H21.583V27.7643H20.86V39.9923C21.1021 39.9615 21.3405 39.9236 21.5837 39.8836V32.2967H23.2514V39.498C23.5962 39.4001 23.9352 39.2921 24.2682 39.1739V32.5815C24.2682 31.8367 24.4486 31.2719 25.2107 31.0163L24.3712 26.43H26.0585L26.3399 31.4389H26.5466L26.8294 26.43H28.6074L27.6546 31.0167C28.453 31.2976 28.6074 31.785 28.6074 32.5819V36.8394C29.1019 36.4701 29.5744 36.0722 30.0224 35.6477V26.3915H34.9637C34.997 26.1723 35.0305 25.9478 35.0582 25.7248H23.4952L23.6592 26.5528C23.2928 25.8825 22.5983 25.5454 21.5835 25.5454H20.86C19.634 25.5454 18.8894 26.0312 18.6085 27.0022C18.3447 25.9859 17.5687 25.4786 16.2806 25.4805H13.1128V39.1503C13.3549 39.2392 13.6014 39.3188 13.8463 39.3986V26.1989Z" fill="#14502E"/>
<path d="M26.0575 38.4109C26.3146 38.2824 26.5679 38.1482 26.8175 38.0085V32.373H26.0575V38.4109Z" fill="#14502E"/>
</svg>
