<svg width="65" height="8" viewBox="0 0 65 8" fill="none" xmlns="http://www.w3.org/2000/svg">
<path fill-rule="evenodd" clip-rule="evenodd" d="M64.5181 4.60627L61.3744 7.74913C61.0392 8.08427 60.4966 8.08427 60.1615 7.74913C59.8272 7.41399 59.8272 6.87227 60.1624 6.53713L62.7001 4.00027L60.1624 1.46342C59.8272 1.12827 59.8272 0.586559 60.1615 0.251417C60.4966 -0.0837259 61.0392 -0.0837259 61.3744 0.251417L64.5181 3.39427C64.6792 3.55456 64.7692 3.77227 64.7692 4.00027C64.7692 4.22827 64.6792 4.44599 64.5181 4.60627Z" fill="white"/>
<path fill-rule="evenodd" clip-rule="evenodd" d="M63.912 4.85742L0.857143 4.85742C0.384 4.85742 -5.65197e-09 4.47428 0 4.00028C5.65282e-09 3.52628 0.384 3.14314 0.857143 3.14314L63.912 3.14314C64.3852 3.14314 64.7692 3.52628 64.7692 4.00028C64.7692 4.47428 64.3852 4.85742 63.912 4.85742Z" fill="white"/>
</svg>
