<svg width="45" height="8" viewBox="0 0 45 8" fill="none" xmlns="http://www.w3.org/2000/svg">
<path fill-rule="evenodd" clip-rule="evenodd" d="M44.5181 4.60627L41.3744 7.74913C41.0392 8.08427 40.4966 8.08427 40.1615 7.74913C39.8272 7.41399 39.8272 6.87227 40.1624 6.53713L42.7001 4.00027L40.1624 1.46342C39.8272 1.12827 39.8272 0.586559 40.1615 0.251417C40.4966 -0.0837259 41.0392 -0.0837259 41.3744 0.251417L44.5181 3.39427C44.6792 3.55456 44.7692 3.77227 44.7692 4.00027C44.7692 4.22827 44.6792 4.44599 44.5181 4.60627Z" fill="white"/>
<path fill-rule="evenodd" clip-rule="evenodd" d="M43.912 4.85742L0.857143 4.85742C0.384 4.85742 4.56893e-09 4.47428 1.02213e-08 4.00028C1.58737e-08 3.52628 0.384 3.14314 0.857143 3.14314L43.912 3.14314C44.3852 3.14314 44.7692 3.52628 44.7692 4.00028C44.7692 4.47428 44.3852 4.85742 43.912 4.85742Z" fill="white"/>
</svg>
