<svg width="16" height="16" viewBox="0 0 16 16" fill="none" xmlns="http://www.w3.org/2000/svg">
<path d="M9.22605 13.3276C8.99433 13.5085 8.80026 13.6501 8.6626 13.7475C8.59372 13.7963 8.53885 13.834 8.5003 13.8602C8.48103 13.8733 8.46583 13.8835 8.45499 13.8907L8.44203 13.8993L8.43808 13.9019L8.43674 13.9028M8.43584 13.9034C8.17192 14.0758 7.82769 14.0755 7.56377 13.9031L7.56192 13.9019L7.55797 13.8993L7.54501 13.8907C7.53417 13.8835 7.51897 13.8733 7.4997 13.8602C7.46115 13.834 7.40628 13.7963 7.33741 13.7475C7.19974 13.6501 7.00567 13.5085 6.77395 13.3276C6.31176 12.9669 5.69345 12.4454 5.07247 11.8031C3.86264 10.5515 2.5 8.69545 2.5 6.58927C2.5 5.15974 3.07946 3.78876 4.11091 2.77793C5.14236 1.7671 6.54131 1.19922 8 1.19922C9.45869 1.19922 10.8576 1.7671 11.8891 2.77793C12.9205 3.78876 13.5 5.15974 13.5 6.58927C13.5 8.27014 12.6321 9.79172 11.6667 10.9738" stroke="#969696" stroke-width="1.3" stroke-linecap="round" stroke-linejoin="round"/>
<path fill-rule="evenodd" clip-rule="evenodd" d="M6.625 6.37478C6.625 5.63277 7.24061 5.03125 8 5.03125C8.75939 5.03125 9.375 5.63277 9.375 6.37478C9.375 7.11679 8.75939 7.7183 8 7.7183C7.24061 7.7183 6.625 7.11679 6.625 6.37478Z" fill="#969696"/>
</svg>
